<?xml version="1.0" standalone="no"?>
<!DOCTYPE svg PUBLIC "-//W3C//DTD SVG 20010904//EN"
 "http://www.w3.org/TR/2001/REC-SVG-20010904/DTD/svg10.dtd">
<svg version="1.0" xmlns="http://www.w3.org/2000/svg"
 width="1728.000000pt" height="960.000000pt" viewBox="0 0 1728.000000 960.000000"
 preserveAspectRatio="xMidYMid meet">

<g transform="translate(0.000000,960.000000) scale(0.100000,-0.100000)"
fill="#000000" stroke="none">
<path d="M5630 8005 l0 -935 3010 0 3010 0 0 935 0 935 -3010 0 -3010 0 0
-935z m5960 0 l0 -875 -2950 0 -2950 0 0 875 0 875 2950 0 2950 0 0 -875z"/>
<path d="M6121 8273 c-12 -41 -4 -53 37 -53 18 0 21 -4 17 -22 -3 -13 -32
-124 -63 -248 l-57 -225 -32 -3 c-34 -3 -45 -16 -57 -64 l-6 -28 144 0 144 0
6 35 c8 43 2 55 -30 55 -27 0 -30 13 -15 70 6 19 15 54 21 78 l11 42 138 0
138 0 -21 -87 c-21 -92 -28 -102 -61 -103 -31 0 -43 -12 -50 -53 l-7 -37 140
0 141 0 10 37 c12 43 8 53 -24 53 -13 0 -26 4 -29 8 -2 4 23 116 56 249 l60
241 38 6 c34 5 39 10 48 46 l10 40 -143 0 -143 0 -7 -36 c-7 -39 3 -54 38 -54
21 0 22 3 -5 -107 l-22 -93 -138 0 c-76 0 -138 3 -138 8 0 4 11 47 23 97 22
87 24 90 56 96 40 8 47 15 56 57 l7 32 -141 0 -140 0 -10 -37z"/>
<path d="M7662 8270 l-10 -40 34 -6 c19 -3 34 -8 34 -10 0 -13 -112 -453 -120
-471 -6 -14 -18 -23 -32 -23 -34 0 -45 -11 -56 -52 l-10 -38 143 0 143 0 6 35
c8 43 2 55 -30 55 -13 0 -24 5 -24 10 0 9 79 333 111 451 8 32 14 37 48 43 33
5 39 10 45 37 3 17 6 35 6 40 0 5 -62 9 -139 9 l-139 0 -10 -40z"/>
<path d="M9176 8293 c-2 -10 -7 -28 -11 -39 -5 -19 0 -23 30 -28 l35 -7 0
-167 c0 -92 3 -224 7 -294 l6 -128 61 0 61 0 123 213 c67 116 126 218 131 225
4 8 13 -58 20 -155 6 -92 15 -194 18 -225 l6 -58 61 0 62 0 153 295 c148 286
154 295 186 301 23 4 36 13 40 28 18 61 29 56 -119 56 -147 0 -133 6 -152 -59
-4 -16 1 -21 31 -27 20 -3 35 -10 33 -14 -2 -4 -43 -92 -93 -195 -105 -219
-97 -223 -114 60 -16 254 -10 237 -73 233 l-51 -3 -133 -235 -134 -235 0 192
0 191 39 7 c33 5 40 11 45 37 3 17 6 34 6 39 0 5 -60 9 -134 9 -120 0 -135 -2
-140 -17z"/>
<path d="M6816 7984 c-13 -34 -6 -44 28 -44 32 0 45 15 46 53 0 15 -68 7 -74
-9z"/>
<path d="M7180 7974 c-14 -36 -14 -36 28 -32 32 3 37 7 40 31 3 24 0 27 -28
27 -24 0 -33 -6 -40 -26z"/>
<path d="M8217 7993 c-13 -13 -7 -43 9 -43 10 0 14 -6 10 -17 -3 -10 -17 -67
-32 -128 -20 -83 -32 -115 -50 -130 -40 -34 -31 -45 40 -45 51 0 65 3 70 17 4
10 1 22 -7 28 -17 12 -11 32 14 45 15 9 21 5 33 -17 12 -24 12 -30 0 -41 -26
-24 -14 -32 50 -32 55 0 64 3 69 20 3 12 -1 21 -12 25 -9 3 -27 26 -39 51 -21
42 -22 48 -7 64 8 9 32 26 53 36 73 37 69 54 -13 54 -51 0 -67 -4 -72 -16 -3
-9 -1 -19 5 -23 6 -3 -7 -18 -29 -34 -21 -16 -39 -25 -39 -20 0 4 11 51 25
103 14 52 25 98 25 103 0 9 -94 10 -103 0z"/>
<path d="M10837 7993 c-13 -13 -7 -43 9 -43 10 0 14 -6 10 -17 -3 -10 -17 -67
-32 -128 -20 -83 -32 -115 -50 -130 -40 -34 -31 -45 40 -45 51 0 65 3 70 17 4
10 1 22 -7 28 -17 12 -11 32 14 45 15 9 21 5 33 -17 12 -24 12 -30 0 -41 -26
-24 -14 -32 50 -32 55 0 64 3 69 20 3 12 -1 21 -12 25 -9 3 -27 26 -39 51 -21
42 -22 48 -7 64 8 9 32 26 53 36 73 37 69 54 -13 54 -51 0 -67 -4 -72 -16 -3
-9 -1 -19 5 -23 6 -3 -7 -18 -29 -34 -21 -16 -39 -25 -39 -20 0 4 11 51 25
103 14 52 25 98 25 103 0 9 -94 10 -103 0z"/>
<path d="M10410 7924 c-6 -14 -10 -30 -10 -35 0 -5 -8 -9 -19 -9 -24 0 -35
-37 -14 -49 14 -7 13 -16 -2 -83 -10 -42 -15 -83 -12 -92 16 -40 107 -41 107
-1 0 15 -7 25 -21 28 -13 3 -19 11 -17 19 3 7 11 39 18 71 11 49 16 57 36 57
20 0 34 17 34 41 0 5 -9 9 -20 9 -18 0 -20 4 -14 35 6 34 5 35 -25 35 -25 0
-34 -6 -41 -26z"/>
<path d="M7042 7874 c-13 -9 -22 -11 -22 -4 0 7 -19 10 -52 8 -41 -2 -54 -7
-56 -20 -2 -11 3 -18 12 -18 9 0 16 -3 16 -7 1 -23 -35 -153 -41 -153 -11 0
-39 -30 -39 -41 0 -5 32 -9 70 -9 61 0 70 2 70 18 0 10 -5 23 -11 29 -8 8 -8
25 1 65 16 66 25 78 61 78 22 0 32 6 39 26 6 14 10 30 10 35 0 14 -33 11 -58
-7z"/>
<path d="M7332 7879 c-30 -9 -52 -39 -52 -70 0 -18 49 -9 60 12 17 31 64 23
68 -12 3 -25 1 -27 -53 -31 -44 -4 -62 -11 -85 -33 -34 -33 -41 -84 -14 -106
20 -16 80 -15 101 3 13 10 17 10 20 1 3 -8 22 -13 49 -13 37 0 44 3 44 19 0
11 -5 21 -11 23 -7 2 -4 28 9 79 12 48 16 83 11 97 -14 38 -76 51 -147 31z
m61 -156 c-11 -32 -25 -43 -54 -43 -22 0 -29 5 -29 20 0 23 25 39 62 40 22 0
26 -4 21 -17z"/>
<path d="M8008 7874 c-16 -8 -28 -10 -28 -4 0 5 -22 10 -49 10 -35 0 -51 -4
-55 -16 -9 -22 -8 -24 9 -24 19 0 19 -16 -1 -95 -11 -44 -22 -66 -34 -70 -10
-3 -20 -15 -23 -25 -5 -18 0 -20 59 -20 68 0 89 15 64 45 -14 17 5 119 28 141
17 18 61 18 68 0 9 -24 -23 -127 -45 -143 -12 -8 -21 -21 -21 -29 0 -22 126
-20 134 2 4 9 0 21 -9 28 -13 10 -13 17 0 66 21 79 19 116 -7 134 -28 20 -55
20 -90 0z"/>
<path d="M8844 7876 c-30 -13 -44 -33 -44 -62 0 -22 43 -17 58 7 19 30 67 23
67 -11 0 -23 -5 -26 -51 -31 -62 -8 -99 -31 -113 -71 -21 -61 31 -100 97 -72
24 9 38 11 40 4 6 -17 82 -12 89 6 3 9 0 20 -7 24 -10 6 -9 22 5 79 9 39 15
82 11 94 -11 44 -89 60 -152 33z m66 -154 c0 -26 -20 -42 -52 -42 -21 0 -28 5
-28 20 0 22 25 39 58 40 15 0 22 -6 22 -18z"/>
<path d="M10161 7873 c-74 -36 -115 -160 -72 -214 55 -70 172 -30 215 73 48
115 -33 195 -143 141z m87 -77 c5 -41 -26 -105 -55 -112 -43 -11 -56 2 -51 51
8 66 32 97 71 93 27 -3 33 -8 35 -32z"/>
<path d="M10590 7877 c-27 -9 -36 -19 -41 -44 -6 -30 -4 -33 17 -33 13 0 28 9
34 20 13 24 65 28 74 5 11 -30 -5 -45 -48 -45 -102 0 -171 -111 -92 -149 24
-11 34 -11 67 2 22 9 39 11 39 6 0 -5 20 -9 44 -9 35 0 45 4 49 20 3 10 0 21
-6 23 -11 3 -3 63 19 143 3 12 -2 29 -13 43 -23 28 -92 37 -143 18z m64 -159
c-9 -29 -22 -38 -56 -38 -18 0 -28 5 -28 14 0 24 30 46 61 46 27 0 30 -3 23
-22z"/>
<path d="M6750 7860 c0 -12 7 -20 16 -20 12 0 15 -6 10 -22 -3 -13 -11 -47
-17 -75 -8 -36 -20 -58 -36 -68 -12 -9 -23 -22 -23 -30 0 -23 128 -21 137 2 4
10 0 21 -9 26 -13 9 -12 20 8 101 13 50 24 94 24 99 0 4 -25 7 -55 7 -48 0
-55 -2 -55 -20z"/>
<path d="M7116 7864 c-9 -22 -8 -24 9 -24 19 0 19 -16 -1 -95 -11 -44 -22 -66
-34 -70 -10 -3 -20 -15 -23 -25 -5 -18 0 -20 63 -20 57 0 69 3 72 18 2 9 -2
22 -10 27 -11 9 -9 27 11 108 l25 97 -53 0 c-39 0 -54 -4 -59 -16z"/>
<path d="M8490 7864 c0 -8 6 -22 14 -29 8 -8 19 -58 26 -114 12 -94 12 -102
-5 -121 -10 -11 -29 -20 -42 -20 -12 0 -23 -4 -23 -9 0 -5 -3 -16 -6 -25 -5
-13 1 -16 34 -16 54 0 79 25 177 182 44 70 88 129 98 131 9 3 17 12 17 21 0
13 -12 16 -60 16 -33 0 -60 -2 -60 -4 0 -2 -3 -11 -6 -20 -4 -11 -1 -16 10
-16 12 0 8 -14 -21 -60 -34 -54 -39 -58 -45 -38 -12 43 -9 98 6 98 7 0 16 9
19 20 5 19 0 20 -64 20 -56 0 -69 -3 -69 -16z"/>
<path d="M11113 7864 c-3 -9 0 -19 7 -24 9 -6 8 -23 -5 -83 -19 -85 -12 -111
32 -128 20 -7 35 -5 65 10 30 14 38 16 34 5 -4 -11 6 -14 44 -14 41 0 50 3 50
18 0 10 -5 23 -11 29 -7 7 -3 39 14 107 l25 96 -49 0 c-37 0 -51 -4 -56 -16
-4 -10 0 -20 9 -25 14 -8 14 -15 1 -71 -17 -67 -33 -88 -70 -88 -19 0 -23 5
-23 33 0 17 7 57 15 87 21 79 21 80 -30 80 -33 0 -47 -5 -52 -16z"/>
<path d="M8107 6056 c-55 -87 -201 -213 -364 -312 -10 -7 -15 -15 -11 -19 29
-30 314 191 392 304 l28 40 44 -53 c24 -30 69 -77 101 -106 64 -57 259 -190
279 -190 34 0 18 22 -41 55 -100 55 -217 148 -295 232 -38 42 -70 80 -70 85 0
4 -8 8 -17 8 -10 0 -30 -19 -46 -44z"/>
<path d="M15990 6060 c-63 -10 -203 -25 -310 -34 -107 -10 -196 -19 -198 -21
-21 -20 119 -20 286 0 l52 6 0 -95 0 -96 -75 0 c-60 0 -73 3 -69 14 6 16 -17
66 -53 114 -42 57 -43 24 -2 -53 l41 -75 -116 0 c-96 0 -116 -3 -116 -15 0
-13 26 -15 173 -15 l172 -1 -40 -36 c-58 -51 -164 -119 -256 -162 -64 -30 -77
-40 -66 -49 26 -22 220 89 350 200 l57 50 0 -91 c0 -74 3 -91 15 -91 12 0 15
17 15 90 0 90 6 104 31 74 21 -26 119 -98 193 -142 l70 -42 -297 0 -297 0 0
-180 c0 -153 2 -180 15 -180 8 0 15 9 15 20 0 20 7 20 270 20 233 0 270 -2
270 -15 0 -8 7 -15 15 -15 13 0 15 26 15 175 l0 174 47 -20 c25 -11 53 -17 61
-14 20 8 8 17 -58 45 -75 31 -177 91 -241 142 l-54 43 174 5 c127 4 175 8 179
18 3 9 -26 12 -122 12 l-125 0 49 78 c54 83 57 92 36 92 -14 0 -103 -146 -98
-162 1 -4 -32 -8 -73 -8 l-75 0 0 95 0 94 33 5 c17 3 83 13 145 22 81 12 112
20 112 30 0 16 -1 16 -150 -6z m-170 -555 l0 -55 -120 0 -120 0 0 55 0 55 120
0 120 0 0 -55z m300 0 l0 -55 -135 0 -135 0 0 55 0 55 135 0 135 0 0 -55z
m-300 -145 l0 -60 -120 0 -120 0 0 60 0 60 120 0 120 0 0 -60z m300 0 l0 -60
-135 0 -135 0 0 60 0 60 135 0 135 0 0 -60z"/>
<path d="M8830 5955 l0 -95 290 0 290 0 0 95 0 95 -290 0 -290 0 0 -95z m550
0 l0 -65 -260 0 -260 0 0 65 0 65 260 0 260 0 0 -65z"/>
<path d="M7920 5775 c0 -13 33 -15 235 -15 202 0 235 2 235 15 0 13 -33 15
-235 15 -202 0 -235 -2 -235 -15z"/>
<path d="M8790 5585 l0 -205 335 0 335 0 0 205 0 205 -335 0 -335 0 0 -205z
m630 125 l0 -50 -300 0 -300 0 0 50 0 50 300 0 300 0 0 -50z m0 -125 l0 -45
-300 0 -300 0 0 45 0 45 300 0 300 0 0 -45z m0 -125 l0 -50 -300 0 -300 0 0
50 0 50 300 0 300 0 0 -50z"/>
<path d="M7770 5595 c0 -13 22 -15 140 -15 77 0 140 -3 140 -7 -1 -5 -31 -66
-68 -138 l-67 -130 -67 -3 c-52 -2 -68 -6 -68 -17 0 -18 -26 -18 360 0 l315
15 18 -22 c10 -12 22 -28 27 -37 6 -12 12 -13 20 -5 22 22 -205 274 -232 258
-6 -4 25 -41 67 -84 64 -64 74 -79 59 -83 -11 -3 -119 -9 -241 -12 l-221 -7
66 136 67 135 238 1 c204 0 237 2 237 15 0 13 -51 15 -395 15 -344 0 -395 -2
-395 -15z"/>
<path d="M8920 5336 c-25 -13 -87 -39 -138 -56 -65 -23 -90 -36 -83 -43 21
-21 310 90 296 113 -9 15 -25 12 -75 -14z"/>
<path d="M9245 5350 c-3 -6 2 -13 12 -16 10 -4 76 -29 146 -56 90 -35 132 -47
139 -40 12 12 -9 22 -171 83 -114 43 -117 44 -126 29z"/>
</g>
</svg>
